<?xml version="1.0" standalone="no"?>
<svg xmlns:xlink="http://www.w3.org/1999/xlink" id="wave" style="transform:rotate(180deg); transition: 0.3s" viewBox="0 0 1440 120" version="1.1" xmlns="http://www.w3.org/2000/svg"><defs><linearGradient id="sw-gradient-0" x1="0" x2="0" y1="1" y2="0"><stop stop-color="rgba(255, 249, 234, 1)" offset="0%"/><stop stop-color="rgba(255, 249, 234, 1)" offset="100%"/></linearGradient></defs><path style="transform:translate(0, 0px); opacity:1" fill="url(#sw-gradient-0)" d="M0,36L16,36C32,36,64,36,96,42C128,48,160,60,192,54C224,48,256,24,288,22C320,20,352,40,384,52C416,64,448,68,480,62C512,56,544,40,576,34C608,28,640,32,672,32C704,32,736,28,768,24C800,20,832,16,864,28C896,40,928,68,960,70C992,72,1024,48,1056,32C1088,16,1120,8,1152,22C1184,36,1216,72,1248,76C1280,80,1312,52,1344,40C1376,28,1408,32,1440,44C1472,56,1504,76,1536,70C1568,64,1600,32,1632,22C1664,12,1696,24,1728,30C1760,36,1792,36,1824,34C1856,32,1888,28,1920,22C1952,16,1984,8,2016,16C2048,24,2080,48,2112,62C2144,76,2176,80,2208,70C2240,60,2272,36,2288,24L2304,12L2304,120L2288,120C2272,120,2240,120,2208,120C2176,120,2144,120,2112,120C2080,120,2048,120,2016,120C1984,120,1952,120,1920,120C1888,120,1856,120,1824,120C1792,120,1760,120,1728,120C1696,120,1664,120,1632,120C1600,120,1568,120,1536,120C1504,120,1472,120,1440,120C1408,120,1376,120,1344,120C1312,120,1280,120,1248,120C1216,120,1184,120,1152,120C1120,120,1088,120,1056,120C1024,120,992,120,960,120C928,120,896,120,864,120C832,120,800,120,768,120C736,120,704,120,672,120C640,120,608,120,576,120C544,120,512,120,480,120C448,120,416,120,384,120C352,120,320,120,288,120C256,120,224,120,192,120C160,120,128,120,96,120C64,120,32,120,16,120L0,120Z"/></svg>